<svg width="54" height="26" viewBox="0 0 54 26" fill="none" xmlns="http://www.w3.org/2000/svg">
<path d="M3.32647 25.425C2.91162 25.425 2.52238 25.3918 2.15875 25.3252C1.80024 25.2637 1.50318 25.1843 1.26759 25.087L2.0051 22.644C2.38922 22.7618 2.73492 22.8258 3.04222 22.8361C3.35463 22.8463 3.62352 22.7746 3.84887 22.621C4.07934 22.4673 4.26628 22.2061 4.40968 21.8374L4.60174 21.338L0.368754 9.19988H3.81046L6.25345 17.8656H6.37637L8.84241 9.19988H12.3072L7.72078 22.2753C7.50055 22.9103 7.20094 23.4635 6.82194 23.9347C6.44807 24.411 5.97432 24.7772 5.40071 25.0332C4.82709 25.2944 4.13568 25.425 3.32647 25.425ZM18.9332 21.2305C17.7399 21.2305 16.7079 20.977 15.8372 20.4699C14.9717 19.9578 14.3033 19.2459 13.8321 18.3342C13.3609 17.4175 13.1253 16.3547 13.1253 15.146C13.1253 13.9271 13.3609 12.8618 13.8321 11.9502C14.3033 11.0334 14.9717 10.3215 15.8372 9.81447C16.7079 9.30231 17.7399 9.04623 18.9332 9.04623C20.1265 9.04623 21.156 9.30231 22.0215 9.81447C22.8922 10.3215 23.5631 11.0334 24.0343 11.9502C24.5055 12.8618 24.7411 13.9271 24.7411 15.146C24.7411 16.3547 24.5055 17.4175 24.0343 18.3342C23.5631 19.2459 22.8922 19.9578 22.0215 20.4699C21.156 20.977 20.1265 21.2305 18.9332 21.2305ZM18.9486 18.6953C19.4915 18.6953 19.9447 18.5416 20.3083 18.2343C20.672 17.9219 20.946 17.4968 21.1304 16.9591C21.3199 16.4213 21.4146 15.8093 21.4146 15.123C21.4146 14.4367 21.3199 13.8247 21.1304 13.2869C20.946 12.7491 20.672 12.324 20.3083 12.0116C19.9447 11.6992 19.4915 11.543 18.9486 11.543C18.4006 11.543 17.9396 11.6992 17.5657 12.0116C17.197 12.324 16.9179 12.7491 16.7284 13.2869C16.544 13.8247 16.4518 14.4367 16.4518 15.123C16.4518 15.8093 16.544 16.4213 16.7284 16.9591C16.9179 17.4968 17.197 17.9219 17.5657 18.2343C17.9396 18.5416 18.4006 18.6953 18.9486 18.6953ZM32.2007 21.2305C31.0073 21.2305 29.9753 20.977 29.1047 20.4699C28.2391 19.9578 27.5707 19.2459 27.0996 18.3342C26.6284 17.4175 26.3928 16.3547 26.3928 15.146C26.3928 13.9271 26.6284 12.8618 27.0996 11.9502C27.5707 11.0334 28.2391 10.3215 29.1047 9.81447C29.9753 9.30231 31.0073 9.04623 32.2007 9.04623C33.394 9.04623 34.4234 9.30231 35.289 9.81447C36.1596 10.3215 36.8306 11.0334 37.3017 11.9502C37.7729 12.8618 38.0085 13.9271 38.0085 15.146C38.0085 16.3547 37.7729 17.4175 37.3017 18.3342C36.8306 19.2459 36.1596 19.9578 35.289 20.4699C34.4234 20.977 33.394 21.2305 32.2007 21.2305ZM32.216 18.6953C32.7589 18.6953 33.2122 18.5416 33.5758 18.2343C33.9394 17.9219 34.2134 17.4968 34.3978 16.9591C34.5873 16.4213 34.6821 15.8093 34.6821 15.123C34.6821 14.4367 34.5873 13.8247 34.3978 13.2869C34.2134 12.7491 33.9394 12.324 33.5758 12.0116C33.2122 11.6992 32.7589 11.543 32.216 11.543C31.668 11.543 31.2071 11.6992 30.8332 12.0116C30.4644 12.324 30.1853 12.7491 29.9958 13.2869C29.8114 13.8247 29.7192 14.4367 29.7192 15.123C29.7192 15.8093 29.8114 16.4213 29.9958 16.9591C30.1853 17.4968 30.4644 17.9219 30.8332 18.2343C31.2071 18.5416 31.668 18.6953 32.216 18.6953ZM40.1365 21V9.19988H43.3094V11.2588H43.4323C43.6474 10.5264 44.0085 9.97324 44.5155 9.59936C45.0225 9.22037 45.6064 9.03087 46.2671 9.03087C46.431 9.03087 46.6077 9.04111 46.7972 9.0616C46.9867 9.08209 47.1531 9.11025 47.2965 9.1461V12.05C47.1429 12.0039 46.9303 11.963 46.6589 11.9271C46.3874 11.8913 46.139 11.8733 45.9137 11.8733C45.4323 11.8733 45.002 11.9783 44.623 12.1883C44.2492 12.3932 43.9521 12.68 43.7319 13.0487C43.5168 13.4175 43.4092 13.8426 43.4092 14.324V21H40.1365ZM48.9885 21V9.19988H52.2612V21H48.9885ZM50.6326 7.67877C50.146 7.67877 49.7286 7.51744 49.3803 7.19478C49.0372 6.867 48.8656 6.4752 48.8656 6.01938C48.8656 5.56868 49.0372 5.182 49.3803 4.85934C49.7286 4.53156 50.146 4.36767 50.6326 4.36767C51.1191 4.36767 51.534 4.53156 51.8771 4.85934C52.2254 5.182 52.3995 5.56868 52.3995 6.01938C52.3995 6.4752 52.2254 6.867 51.8771 7.19478C51.534 7.51744 51.1191 7.67877 50.6326 7.67877Z" fill="black"/>
<circle cx="50.4783" cy="5.4083" r="2.70419" fill="#FEBD0D"/>
</svg>
