<svg width="11" height="7" viewBox="0 0 11 7" fill="none" xmlns="http://www.w3.org/2000/svg">
<path fill-rule="evenodd" clip-rule="evenodd" d="M0.0171204 3.53408C0.0171204 3.39236 0.079035 3.25644 0.189244 3.15622C0.299453 3.05601 0.448928 2.99971 0.604787 2.99971H8.58921L6.45794 1.06174C6.35414 0.960444 6.29762 0.826463 6.30031 0.688026C6.303 0.549588 6.36467 0.417504 6.47234 0.319598C6.58001 0.221693 6.72527 0.165612 6.87752 0.163169C7.02976 0.160727 7.17711 0.212114 7.28851 0.306504L10.4227 3.15646C10.5328 3.25665 10.5946 3.39247 10.5946 3.53408C10.5946 3.67569 10.5328 3.8115 10.4227 3.9117L7.28851 6.76165C7.23471 6.81415 7.16983 6.85626 7.09774 6.88547C7.02566 6.91468 6.94784 6.93038 6.86893 6.93165C6.79003 6.93291 6.71165 6.91971 6.63847 6.89284C6.5653 6.86596 6.49883 6.82596 6.44302 6.77522C6.38722 6.72447 6.34323 6.66403 6.31367 6.59749C6.28412 6.53096 6.2696 6.45969 6.27099 6.38794C6.27238 6.31619 6.28966 6.24543 6.32177 6.17988C6.35389 6.11433 6.4002 6.05534 6.45794 6.00641L8.58921 4.06844H0.604787C0.448928 4.06844 0.299453 4.01215 0.189244 3.91193C0.079035 3.81172 0.0171204 3.6758 0.0171204 3.53408Z" fill="#FEBD0D"/>
</svg>
