<svg width="17" height="16" viewBox="0 0 17 16" fill="none" xmlns="http://www.w3.org/2000/svg">
<path d="M12.1512 3.81963V3.85942H12.191H15.5332C15.8181 3.85942 16.0913 3.9726 16.2928 4.17406C16.4942 4.37553 16.6074 4.64877 16.6074 4.93369V14.4828C16.6074 14.7677 16.4942 15.0409 16.2928 15.2424C16.0913 15.4438 15.8181 15.557 15.5332 15.557H1.52785C1.24293 15.557 0.969687 15.4438 0.768222 15.2424C0.566757 15.0409 0.453576 14.7677 0.453576 14.4828V4.93369C0.453576 4.64877 0.566757 4.37553 0.768222 4.17406C0.969687 3.9726 1.24293 3.85942 1.52785 3.85942H4.87002H4.90981V3.81963V3.66048C4.90981 2.70021 5.29127 1.77927 5.97029 1.10026C6.6493 0.421252 7.57023 0.0397878 8.5305 0.0397878C9.49077 0.0397878 10.4117 0.421252 11.0907 1.10026C11.7697 1.77927 12.1512 2.70021 12.1512 3.66048V3.81963ZM11.2361 3.85942H11.2759V3.81963V3.66048C11.2759 2.93236 10.9866 2.23407 10.4718 1.71922C9.95691 1.20436 9.25861 0.915119 8.5305 0.915119C7.80239 0.915119 7.10409 1.20436 6.58924 1.71922C6.07438 2.23407 5.78514 2.93236 5.78514 3.66048V3.81963V3.85942H5.82493H11.2361ZM4.90981 4.77454V4.73475H4.87002H1.52785C1.47508 4.73475 1.42448 4.75571 1.38718 4.79302C1.34987 4.83032 1.32891 4.88093 1.32891 4.93369V14.4828C1.32891 14.5355 1.34987 14.5861 1.38718 14.6234C1.42448 14.6607 1.47508 14.6817 1.52785 14.6817H15.5332C15.5859 14.6817 15.6365 14.6607 15.6738 14.6234C15.7111 14.5861 15.7321 14.5355 15.7321 14.4828V4.93369C15.7321 4.88092 15.7111 4.83032 15.6738 4.79302C15.6365 4.75571 15.5859 4.73475 15.5332 4.73475H12.191H12.1512V4.77454V6.2069C12.1512 6.32297 12.1051 6.43429 12.023 6.51637C11.9409 6.59845 11.8296 6.64456 11.7135 6.64456C11.5974 6.64456 11.4861 6.59845 11.404 6.51637C11.322 6.43429 11.2759 6.32297 11.2759 6.2069V4.77454V4.73475H11.2361H5.82493H5.78514V4.77454V6.2069C5.78514 6.32297 5.73903 6.43429 5.65695 6.51637C5.57487 6.59845 5.46355 6.64456 5.34748 6.64456C5.2314 6.64456 5.12008 6.59845 5.038 6.51637C4.95592 6.43429 4.90981 6.32297 4.90981 6.2069V4.77454Z" fill="#F62F2F" stroke="#F62F2F" stroke-width="0.0795756"/>
</svg>
