<svg width="16" height="16" viewBox="0 0 16 16" fill="none" xmlns="http://www.w3.org/2000/svg">
<path d="M6.37734 6.68967H1.14745C1.04631 6.68967 0.949314 6.64949 0.877798 6.57797C0.806282 6.50646 0.766104 6.40946 0.766104 6.30832V1.07843C0.766104 0.977295 0.806282 0.880299 0.877798 0.808782C0.949314 0.737266 1.04631 0.697089 1.14745 0.697089H6.37734C6.47847 0.697089 6.57547 0.737266 6.64699 0.808782C6.7185 0.880299 6.75868 0.977296 6.75868 1.07843V6.30832C6.75868 6.40946 6.7185 6.50645 6.64699 6.57797L6.99368 6.92467L6.64699 6.57797C6.57547 6.64949 6.47847 6.68967 6.37734 6.68967ZM15.0938 6.68967H9.86393C9.76279 6.68967 9.66579 6.64949 9.59427 6.57797C9.52276 6.50646 9.48258 6.40946 9.48258 6.30832V1.07843C9.48258 0.977295 9.52276 0.880299 9.59427 0.808782C9.66579 0.737266 9.76279 0.697089 9.86393 0.697089H15.0938C15.195 0.697089 15.2919 0.737266 15.3635 0.808782C15.435 0.880298 15.4752 0.977294 15.4752 1.07843V6.30832C15.4752 6.40946 15.435 6.50646 15.3635 6.57797C15.2919 6.64949 15.195 6.68967 15.0938 6.68967ZM6.37734 15.4061H1.14745C1.04631 15.4061 0.949313 15.366 0.877798 15.2944C0.806282 15.2229 0.766104 15.1259 0.766104 15.0248V9.79491C0.766104 9.69377 0.806282 9.59677 0.877798 9.52526C0.949314 9.45374 1.04631 9.41356 1.14745 9.41356H6.37734C6.47847 9.41356 6.57547 9.45374 6.64699 9.52526C6.7185 9.59677 6.75868 9.69377 6.75868 9.79491V15.0248C6.75868 15.1259 6.7185 15.2229 6.64699 15.2944C6.57547 15.366 6.47848 15.4061 6.37734 15.4061ZM15.4752 12.4099C15.4752 14.0619 14.1309 15.4061 12.4789 15.4061C10.8268 15.4061 9.48258 14.0619 9.48258 12.4099C9.48258 10.7578 10.8268 9.41356 12.4789 9.41356C14.1309 9.41356 15.4752 10.7578 15.4752 12.4099Z" stroke="#F62F2F" stroke-width="0.980604"/>
</svg>
