<svg width="17" height="14" viewBox="0 0 17 14" fill="none" xmlns="http://www.w3.org/2000/svg">
<path d="M8.18027 13.4303L8.18026 13.4303L8.17695 13.4321C8.17438 13.4335 8.17151 13.4342 8.16859 13.4342C8.16568 13.4342 8.1628 13.4335 8.16024 13.4321L8.15691 13.4303C8.01486 13.3551 6.08439 12.303 4.19798 10.651C2.28182 8.9729 0.565982 6.81002 0.565822 4.52222C0.567088 3.47331 0.984326 2.46772 1.72602 1.72602C2.46772 0.984326 3.47331 0.567088 4.52222 0.565822C5.61636 0.565897 6.57976 0.948473 7.27993 1.59808C7.77332 2.05584 8.56387 2.05584 9.05726 1.59808C9.75743 0.948472 10.7208 0.565897 11.815 0.565822C12.8639 0.567088 13.8695 0.984326 14.6112 1.72602C15.3528 2.46764 15.77 3.47311 15.7714 4.5219C15.7714 6.80982 14.0555 8.97282 12.1392 10.651C10.2528 12.303 8.32232 13.3551 8.18027 13.4303Z" stroke="black" stroke-width="1.13164"/>
</svg>
