<svg width="18" height="17" viewBox="0 0 18 17" fill="none" xmlns="http://www.w3.org/2000/svg">
<path d="M9.11498 7.85072V7.44842M12.3334 7.85072V7.44842M5.89659 7.85072V7.44842M2.24693 12.5399C1.069 11.5977 1.069 10.8849 1.069 7.85072C1.069 4.81658 1.069 3.29911 2.24693 2.35693C3.42647 1.41394 5.3221 1.41394 9.11498 1.41394C12.9079 1.41394 14.8043 1.41394 15.9822 2.35693C17.1601 3.29992 17.161 4.81658 17.161 7.85072C17.161 10.8849 17.161 11.5977 15.9822 12.5399C14.8051 13.4829 12.9079 13.4829 9.11498 13.4829C7.09544 13.4829 6.05751 14.8813 4.28739 15.8967V13.3123C3.40716 13.1812 2.75946 12.9503 2.24693 12.5399Z" stroke="#F62F2F" stroke-width="1.2069" stroke-linecap="round" stroke-linejoin="round"/>
</svg>
